<mxfile host="app.diagrams.net" modified="2024-03-03T17:39:59.582Z" agent="Mozilla/5.0 (Windows NT 10.0; Win64; x64) AppleWebKit/537.36 (KHTML, like Gecko) Chrome/122.0.0.0 Safari/537.36 Edg/122.0.0.0" etag="UdOOdyyyYDLL_TAJRRbO" version="24.0.1" type="github">
  <diagram name="Page-1" id="IoReF-YQmCsT2hz2vlJp">
    <mxGraphModel dx="1434" dy="827" grid="0" gridSize="10" guides="1" tooltips="1" connect="1" arrows="1" fold="1" page="1" pageScale="1" pageWidth="1654" pageHeight="2336" math="0" shadow="0">
      <root>
        <mxCell id="0" />
        <mxCell id="1" parent="0" />
        <mxCell id="G66VGJEq1GE2eV-hewiI-1" value="Begin" style="ellipse;whiteSpace=wrap;html=1;" parent="1" vertex="1">
          <mxGeometry x="911" y="45" width="103" height="58" as="geometry" />
        </mxCell>
        <mxCell id="G66VGJEq1GE2eV-hewiI-2" value="&lt;div&gt;m,n&lt;/div&gt;Matrix.txt" style="shape=parallelogram;perimeter=parallelogramPerimeter;whiteSpace=wrap;html=1;fixedSize=1;" parent="1" vertex="1">
          <mxGeometry x="903" y="141" width="120" height="60" as="geometry" />
        </mxCell>
        <mxCell id="G66VGJEq1GE2eV-hewiI-5" value="" style="endArrow=classic;html=1;rounded=0;exitX=0.5;exitY=1;exitDx=0;exitDy=0;entryX=0.5;entryY=0;entryDx=0;entryDy=0;" parent="1" source="G66VGJEq1GE2eV-hewiI-1" target="G66VGJEq1GE2eV-hewiI-2" edge="1">
          <mxGeometry width="50" height="50" relative="1" as="geometry">
            <mxPoint x="872" y="246" as="sourcePoint" />
            <mxPoint x="922" y="196" as="targetPoint" />
          </mxGeometry>
        </mxCell>
        <mxCell id="G66VGJEq1GE2eV-hewiI-6" value="i&amp;lt;=n&lt;div&gt;&lt;span style=&quot;background-color: initial;&quot;&gt;i&amp;lt;=m&lt;/span&gt;&lt;/div&gt;" style="rhombus;whiteSpace=wrap;html=1;" parent="1" vertex="1">
          <mxGeometry x="912" y="323" width="102" height="92" as="geometry" />
        </mxCell>
        <mxCell id="Hq9DAzxIbjgDaxSv4vDP-6" style="edgeStyle=orthogonalEdgeStyle;rounded=0;orthogonalLoop=1;jettySize=auto;html=1;exitX=1;exitY=0.5;exitDx=0;exitDy=0;entryX=1;entryY=0.5;entryDx=0;entryDy=0;" edge="1" parent="1" source="G66VGJEq1GE2eV-hewiI-7" target="G66VGJEq1GE2eV-hewiI-6">
          <mxGeometry relative="1" as="geometry">
            <Array as="points">
              <mxPoint x="1271" y="700" />
              <mxPoint x="1271" y="369" />
            </Array>
          </mxGeometry>
        </mxCell>
        <mxCell id="Hq9DAzxIbjgDaxSv4vDP-7" value="Sai" style="edgeLabel;html=1;align=center;verticalAlign=middle;resizable=0;points=[];" vertex="1" connectable="0" parent="Hq9DAzxIbjgDaxSv4vDP-6">
          <mxGeometry x="-0.8895" y="1" relative="1" as="geometry">
            <mxPoint x="4" y="-11" as="offset" />
          </mxGeometry>
        </mxCell>
        <mxCell id="G66VGJEq1GE2eV-hewiI-7" value="j&amp;lt;=m" style="rhombus;whiteSpace=wrap;html=1;" parent="1" vertex="1">
          <mxGeometry x="1091" y="660" width="80" height="80" as="geometry" />
        </mxCell>
        <mxCell id="G66VGJEq1GE2eV-hewiI-8" value="" style="endArrow=classic;html=1;rounded=0;entryX=0.5;entryY=0;entryDx=0;entryDy=0;exitX=1;exitY=0.5;exitDx=0;exitDy=0;" parent="1" source="G66VGJEq1GE2eV-hewiI-13" target="G66VGJEq1GE2eV-hewiI-11" edge="1">
          <mxGeometry width="50" height="50" relative="1" as="geometry">
            <mxPoint x="732" y="477" as="sourcePoint" />
            <mxPoint x="782" y="427" as="targetPoint" />
            <Array as="points">
              <mxPoint x="1130" y="499" />
            </Array>
          </mxGeometry>
        </mxCell>
        <mxCell id="G66VGJEq1GE2eV-hewiI-15" value="Sai" style="edgeLabel;html=1;align=center;verticalAlign=middle;resizable=0;points=[];" parent="G66VGJEq1GE2eV-hewiI-8" vertex="1" connectable="0">
          <mxGeometry x="-0.3529" y="-2" relative="1" as="geometry">
            <mxPoint x="3" y="-13" as="offset" />
          </mxGeometry>
        </mxCell>
        <mxCell id="G66VGJEq1GE2eV-hewiI-10" value="" style="endArrow=classic;html=1;rounded=0;entryX=0.5;entryY=0;entryDx=0;entryDy=0;exitX=0.5;exitY=1;exitDx=0;exitDy=0;" parent="1" source="G66VGJEq1GE2eV-hewiI-2" target="G66VGJEq1GE2eV-hewiI-17" edge="1">
          <mxGeometry width="50" height="50" relative="1" as="geometry">
            <mxPoint x="837" y="436" as="sourcePoint" />
            <mxPoint x="887" y="386" as="targetPoint" />
          </mxGeometry>
        </mxCell>
        <mxCell id="G66VGJEq1GE2eV-hewiI-11" value="&lt;div&gt;giaTri=A[i][i]&lt;/div&gt;&lt;div&gt;hang=i&lt;/div&gt;&lt;div&gt;chiaHang(A[][], hang,&amp;nbsp; giaTri)&lt;/div&gt;j=i" style="rounded=0;whiteSpace=wrap;html=1;" parent="1" vertex="1">
          <mxGeometry x="1049.5" y="539" width="163" height="76" as="geometry" />
        </mxCell>
        <mxCell id="G66VGJEq1GE2eV-hewiI-13" value="A[i][i]==0" style="rhombus;whiteSpace=wrap;html=1;" parent="1" vertex="1">
          <mxGeometry x="922.5" y="459" width="80" height="80" as="geometry" />
        </mxCell>
        <mxCell id="G66VGJEq1GE2eV-hewiI-14" value="" style="endArrow=classic;html=1;rounded=0;entryX=0.5;entryY=0;entryDx=0;entryDy=0;exitX=0.5;exitY=1;exitDx=0;exitDy=0;" parent="1" source="G66VGJEq1GE2eV-hewiI-6" target="G66VGJEq1GE2eV-hewiI-13" edge="1">
          <mxGeometry width="50" height="50" relative="1" as="geometry">
            <mxPoint x="837" y="436" as="sourcePoint" />
            <mxPoint x="887" y="386" as="targetPoint" />
          </mxGeometry>
        </mxCell>
        <mxCell id="G66VGJEq1GE2eV-hewiI-30" value="Đúng" style="edgeLabel;html=1;align=center;verticalAlign=middle;resizable=0;points=[];" parent="G66VGJEq1GE2eV-hewiI-14" vertex="1" connectable="0">
          <mxGeometry x="-0.2279" y="1" relative="1" as="geometry">
            <mxPoint x="16" as="offset" />
          </mxGeometry>
        </mxCell>
        <mxCell id="G66VGJEq1GE2eV-hewiI-33" style="edgeStyle=orthogonalEdgeStyle;rounded=0;orthogonalLoop=1;jettySize=auto;html=1;exitX=0.5;exitY=1;exitDx=0;exitDy=0;entryX=0.5;entryY=0;entryDx=0;entryDy=0;" parent="1" source="G66VGJEq1GE2eV-hewiI-16" target="G66VGJEq1GE2eV-hewiI-36" edge="1">
          <mxGeometry relative="1" as="geometry" />
        </mxCell>
        <mxCell id="G66VGJEq1GE2eV-hewiI-35" value="Đúng" style="edgeLabel;html=1;align=center;verticalAlign=middle;resizable=0;points=[];" parent="G66VGJEq1GE2eV-hewiI-33" vertex="1" connectable="0">
          <mxGeometry x="-0.5349" relative="1" as="geometry">
            <mxPoint x="17" y="5" as="offset" />
          </mxGeometry>
        </mxCell>
        <mxCell id="Hq9DAzxIbjgDaxSv4vDP-4" style="edgeStyle=orthogonalEdgeStyle;rounded=0;orthogonalLoop=1;jettySize=auto;html=1;exitX=1;exitY=0.5;exitDx=0;exitDy=0;entryX=0.5;entryY=1;entryDx=0;entryDy=0;" edge="1" parent="1" source="G66VGJEq1GE2eV-hewiI-16" target="G66VGJEq1GE2eV-hewiI-13">
          <mxGeometry relative="1" as="geometry" />
        </mxCell>
        <mxCell id="Hq9DAzxIbjgDaxSv4vDP-5" value="Sai" style="edgeLabel;html=1;align=center;verticalAlign=middle;resizable=0;points=[];" vertex="1" connectable="0" parent="Hq9DAzxIbjgDaxSv4vDP-4">
          <mxGeometry x="-0.5564" relative="1" as="geometry">
            <mxPoint x="-8" y="-10" as="offset" />
          </mxGeometry>
        </mxCell>
        <mxCell id="G66VGJEq1GE2eV-hewiI-16" value="j&amp;lt;=m" style="rhombus;whiteSpace=wrap;html=1;" parent="1" vertex="1">
          <mxGeometry x="752" y="648" width="80" height="80" as="geometry" />
        </mxCell>
        <mxCell id="G66VGJEq1GE2eV-hewiI-17" value="i=0" style="rounded=0;whiteSpace=wrap;html=1;" parent="1" vertex="1">
          <mxGeometry x="912" y="238" width="102" height="47" as="geometry" />
        </mxCell>
        <mxCell id="G66VGJEq1GE2eV-hewiI-18" value="" style="endArrow=classic;html=1;rounded=0;entryX=0.5;entryY=0;entryDx=0;entryDy=0;exitX=0.5;exitY=1;exitDx=0;exitDy=0;" parent="1" source="G66VGJEq1GE2eV-hewiI-17" target="G66VGJEq1GE2eV-hewiI-6" edge="1">
          <mxGeometry width="50" height="50" relative="1" as="geometry">
            <mxPoint x="837" y="436" as="sourcePoint" />
            <mxPoint x="887" y="386" as="targetPoint" />
          </mxGeometry>
        </mxCell>
        <mxCell id="G66VGJEq1GE2eV-hewiI-19" value="" style="endArrow=classic;html=1;rounded=0;entryX=0.5;entryY=0;entryDx=0;entryDy=0;exitX=0.5;exitY=1;exitDx=0;exitDy=0;" parent="1" source="G66VGJEq1GE2eV-hewiI-11" target="G66VGJEq1GE2eV-hewiI-7" edge="1">
          <mxGeometry width="50" height="50" relative="1" as="geometry">
            <mxPoint x="837" y="819" as="sourcePoint" />
            <mxPoint x="887" y="769" as="targetPoint" />
          </mxGeometry>
        </mxCell>
        <mxCell id="G66VGJEq1GE2eV-hewiI-20" value="" style="endArrow=classic;html=1;rounded=0;entryX=0.5;entryY=0;entryDx=0;entryDy=0;exitX=0;exitY=0.5;exitDx=0;exitDy=0;" parent="1" source="G66VGJEq1GE2eV-hewiI-13" target="G66VGJEq1GE2eV-hewiI-27" edge="1">
          <mxGeometry width="50" height="50" relative="1" as="geometry">
            <mxPoint x="837" y="564" as="sourcePoint" />
            <mxPoint x="887" y="514" as="targetPoint" />
            <Array as="points">
              <mxPoint x="792" y="499" />
            </Array>
          </mxGeometry>
        </mxCell>
        <mxCell id="G66VGJEq1GE2eV-hewiI-26" value="Đúng" style="edgeLabel;html=1;align=center;verticalAlign=middle;resizable=0;points=[];" parent="G66VGJEq1GE2eV-hewiI-20" vertex="1" connectable="0">
          <mxGeometry x="-0.2362" relative="1" as="geometry">
            <mxPoint x="4" y="-12" as="offset" />
          </mxGeometry>
        </mxCell>
        <mxCell id="G66VGJEq1GE2eV-hewiI-24" style="edgeStyle=orthogonalEdgeStyle;rounded=0;orthogonalLoop=1;jettySize=auto;html=1;exitX=0;exitY=0.5;exitDx=0;exitDy=0;entryX=0;entryY=0.5;entryDx=0;entryDy=0;" parent="1" source="G66VGJEq1GE2eV-hewiI-21" target="G66VGJEq1GE2eV-hewiI-7" edge="1">
          <mxGeometry relative="1" as="geometry" />
        </mxCell>
        <mxCell id="G66VGJEq1GE2eV-hewiI-21" value="&lt;div&gt;cot=j&lt;/div&gt;khuCotDuoi(A[][], cot)&lt;div&gt;j++&lt;/div&gt;" style="rounded=0;whiteSpace=wrap;html=1;" parent="1" vertex="1">
          <mxGeometry x="1064.75" y="780" width="132.5" height="51" as="geometry" />
        </mxCell>
        <mxCell id="G66VGJEq1GE2eV-hewiI-22" value="" style="endArrow=classic;html=1;rounded=0;entryX=0.5;entryY=0;entryDx=0;entryDy=0;exitX=0.5;exitY=1;exitDx=0;exitDy=0;" parent="1" source="G66VGJEq1GE2eV-hewiI-7" target="G66VGJEq1GE2eV-hewiI-21" edge="1">
          <mxGeometry width="50" height="50" relative="1" as="geometry">
            <mxPoint x="837" y="564" as="sourcePoint" />
            <mxPoint x="887" y="514" as="targetPoint" />
          </mxGeometry>
        </mxCell>
        <mxCell id="G66VGJEq1GE2eV-hewiI-25" value="Đúng" style="edgeLabel;html=1;align=center;verticalAlign=middle;resizable=0;points=[];" parent="G66VGJEq1GE2eV-hewiI-22" vertex="1" connectable="0">
          <mxGeometry x="-0.2" y="-2" relative="1" as="geometry">
            <mxPoint x="21" as="offset" />
          </mxGeometry>
        </mxCell>
        <mxCell id="G66VGJEq1GE2eV-hewiI-29" style="edgeStyle=orthogonalEdgeStyle;rounded=0;orthogonalLoop=1;jettySize=auto;html=1;exitX=0.5;exitY=1;exitDx=0;exitDy=0;entryX=0.5;entryY=0;entryDx=0;entryDy=0;" parent="1" source="G66VGJEq1GE2eV-hewiI-27" target="G66VGJEq1GE2eV-hewiI-16" edge="1">
          <mxGeometry relative="1" as="geometry" />
        </mxCell>
        <mxCell id="G66VGJEq1GE2eV-hewiI-27" value="j=i" style="rounded=0;whiteSpace=wrap;html=1;" parent="1" vertex="1">
          <mxGeometry x="732" y="539" width="120" height="60" as="geometry" />
        </mxCell>
        <mxCell id="G66VGJEq1GE2eV-hewiI-31" value="&lt;div&gt;hang1=j&lt;/div&gt;&lt;div&gt;hang2=i&lt;/div&gt;swap(A[][], hang1,hang2)&lt;div&gt;break&lt;/div&gt;" style="rounded=0;whiteSpace=wrap;html=1;" parent="1" vertex="1">
          <mxGeometry x="714.5" y="898" width="155" height="60" as="geometry" />
        </mxCell>
        <mxCell id="G66VGJEq1GE2eV-hewiI-37" style="edgeStyle=orthogonalEdgeStyle;rounded=0;orthogonalLoop=1;jettySize=auto;html=1;exitX=0.5;exitY=1;exitDx=0;exitDy=0;entryX=0.5;entryY=0;entryDx=0;entryDy=0;" parent="1" source="G66VGJEq1GE2eV-hewiI-36" target="G66VGJEq1GE2eV-hewiI-31" edge="1">
          <mxGeometry relative="1" as="geometry" />
        </mxCell>
        <mxCell id="G66VGJEq1GE2eV-hewiI-38" value="Đúng" style="edgeLabel;html=1;align=center;verticalAlign=middle;resizable=0;points=[];" parent="G66VGJEq1GE2eV-hewiI-37" vertex="1" connectable="0">
          <mxGeometry x="-0.2917" y="3" relative="1" as="geometry">
            <mxPoint x="13" y="1" as="offset" />
          </mxGeometry>
        </mxCell>
        <mxCell id="Hq9DAzxIbjgDaxSv4vDP-1" style="edgeStyle=orthogonalEdgeStyle;rounded=0;orthogonalLoop=1;jettySize=auto;html=1;exitX=0;exitY=0.5;exitDx=0;exitDy=0;entryX=1;entryY=0.5;entryDx=0;entryDy=0;" edge="1" parent="1" source="G66VGJEq1GE2eV-hewiI-36" target="G66VGJEq1GE2eV-hewiI-40">
          <mxGeometry relative="1" as="geometry" />
        </mxCell>
        <mxCell id="Hq9DAzxIbjgDaxSv4vDP-3" value="Sai" style="edgeLabel;html=1;align=center;verticalAlign=middle;resizable=0;points=[];" vertex="1" connectable="0" parent="Hq9DAzxIbjgDaxSv4vDP-1">
          <mxGeometry x="-0.4925" y="1" relative="1" as="geometry">
            <mxPoint x="-11" y="-9" as="offset" />
          </mxGeometry>
        </mxCell>
        <mxCell id="G66VGJEq1GE2eV-hewiI-36" value="A[i][j]!=0" style="rhombus;whiteSpace=wrap;html=1;" parent="1" vertex="1">
          <mxGeometry x="752" y="770" width="80" height="80" as="geometry" />
        </mxCell>
        <mxCell id="Hq9DAzxIbjgDaxSv4vDP-2" style="edgeStyle=orthogonalEdgeStyle;rounded=0;orthogonalLoop=1;jettySize=auto;html=1;exitX=0.5;exitY=0;exitDx=0;exitDy=0;entryX=0;entryY=0.5;entryDx=0;entryDy=0;" edge="1" parent="1" source="G66VGJEq1GE2eV-hewiI-40" target="G66VGJEq1GE2eV-hewiI-16">
          <mxGeometry relative="1" as="geometry" />
        </mxCell>
        <mxCell id="G66VGJEq1GE2eV-hewiI-40" value="j++" style="rounded=0;whiteSpace=wrap;html=1;" parent="1" vertex="1">
          <mxGeometry x="603" y="787.5" width="82" height="45" as="geometry" />
        </mxCell>
      </root>
    </mxGraphModel>
  </diagram>
</mxfile>
